<svg width="52" height="53" viewBox="0 0 52 53" fill="none" xmlns="http://www.w3.org/2000/svg">
<g clip-path="url(#clip0_8_46)">
<path fill-rule="evenodd" clip-rule="evenodd" d="M23.2819 20.2264C22.7543 19.73 21.9319 19.7636 21.4449 20.3013L17.2449 24.9388C16.7852 25.4462 16.7852 26.2286 17.2449 26.7361L21.4449 31.3738C21.9319 31.9114 22.7543 31.945 23.2818 31.4486C23.8095 30.9523 23.8424 30.1141 23.3554 29.5763L21.1693 27.1625H33.8001C34.5181 27.1625 35.1001 26.5693 35.1001 25.8375C35.1001 25.1057 34.5181 24.5125 33.8001 24.5125H21.1693L23.3554 22.0988C23.8424 21.5611 23.8095 20.7227 23.2819 20.2264Z" fill="#777E91"/>
<path d="M50.6998 26.5C50.6998 12.5962 39.6412 1.32495 25.9998 1.32495C12.3584 1.32495 1.2998 12.5962 1.2998 26.5C1.2998 40.4037 12.3584 51.6749 25.9998 51.6749C39.6412 51.6749 50.6998 40.4037 50.6998 26.5Z" stroke="#E6E8EC" stroke-width="2"/>
</g>
<defs>
<clipPath id="clip0_8_46">
<rect width="52" height="53" fill="white"/>
</clipPath>
</defs>
</svg>
