<svg width="52" height="53" viewBox="0 0 52 53" fill="none" xmlns="http://www.w3.org/2000/svg">
<g clip-path="url(#clip0_8_46)">
<path fill-rule="evenodd" clip-rule="evenodd" d="M28.7181 20.2264C29.2457 19.73 30.0681 19.7636 30.5551 20.3013L34.7551 24.9388C35.2148 25.4462 35.2148 26.2286 34.7551 26.7361L30.5551 31.3738C30.0681 31.9114 29.2457 31.945 28.7182 31.4486C28.1905 30.9523 28.1576 30.1141 28.6446 29.5763L30.8307 27.1625H18.1999C17.4819 27.1625 16.8999 26.5693 16.8999 25.8375C16.8999 25.1057 17.4819 24.5125 18.1999 24.5125H30.8307L28.6446 22.0988C28.1576 21.5611 28.1905 20.7227 28.7181 20.2264Z" fill="#777E91"/>
<path d="M50.6998 26.5C50.6998 12.5962 39.6412 1.32495 25.9998 1.32495C12.3584 1.32495 1.2998 12.5962 1.2998 26.5C1.2998 40.4037 12.3584 51.6749 25.9998 51.6749C39.6412 51.6749 50.6998 40.4037 50.6998 26.5Z" stroke="#E6E8EC" stroke-width="2"/>
</g>
<defs>
<clipPath id="clip0_8_46">
<rect width="52" height="53" fill="white"/>
</clipPath>
</defs>
</svg>
